<svg height="32" viewBox="0 0 32 32" width="32" xmlns="http://www.w3.org/2000/svg">
  <g>
    <path d="M23.662 15.286l-6.9-6.999c-.39-.394-1.024-.394-1.414 0-.391.394-.391 1.034 0 1.428L21.544 16l-6.196 6.285c-.391.394-.391 1.034 0 1.428.391.394 1.024.394 1.414 0l6.899-6.999c.377-.379.378-1.048.001-1.428z"/>
    <path d="M16.662 15.286L9.763 8.287c-.391-.394-1.024-.394-1.414 0-.391.394-.391 1.034 0 1.428L14.544 16l-6.196 6.285c-.391.394-.391 1.034 0 1.428.391.394 1.024.394 1.414 0l6.899-6.999c.377-.379.378-1.048.001-1.428z"/>
  </g>
</svg>