<svg xmlns="http://www.w3.org/2000/svg" viewBox="0 0 300 300"><path d="M204.572 164.656c1.678 6.632-16.682 4.528-21.166 10.737-4.487 6.206-15.45 2.036-17.992.843s-12.278 2.783-11.427-3.976c.846-6.76 6.77-7.158 13.12-9.94 6.35-2.78 15.508-12.025 11.008-13.233C156.928 143.404 149.7 123.5 149.7 123.5c-1.27-.238-.952-14.07-6.453-14.466-5.506-.4-8.47 1.59-16.51 0-8.046-1.59-6.35-6.76-7.62-17.893-1.27-11.133 3.39-7.554 5.905-11.13.22-.315.506-.595.786-.875C96.35 89.22 75.103 117.17 75.103 150.002l.003.156c5.475.353 15.445 1.51 15.914 5.265.648 5.187 0 11.67 4.54 13.616s5.835-7.782 9.725-5.188c3.89 2.594 14.265 5.09 14.265 9.677 0 4.584-1.945 11.72 0 13.016s9.72 10.374 9.723 11.67c.003 1.298 2.74 7.893 1.924 10.414-.677 2.09-4.093 8.58-7.405 11.53 8.162 3.06 16.99 4.742 26.208 4.742 41.3 0 74.9-33.6 74.9-74.9 0-12.23-2.967-23.778-8.188-33.986.5 7.617.163 14.558 1.83 16.832 7.3 9.94-17.78 16.776-13.97 31.808z"/><path d="M149.997 0C67.157 0 .003 67.16.003 149.997S67.158 300 149.997 300s150-67.163 150-150.003S232.837 0 149.997 0zM150 240.462c-49.88 0-90.462-40.58-90.462-90.462S100.12 59.538 150 59.538s90.462 40.58 90.462 90.462S199.88 240.462 150 240.462z"/></svg>