<svg viewBox="0 0 32 32" xmlns="http://www.w3.org/2000/svg">
  <path d="M16 0C7.163 0 0 7.163 0 16c0 8.836 7.163 16 16 16s16-7.164 16-16c0-8.837-7.163-16-16-16z"/>
  <g fill="#FFF">
    <path d="M19.8688367 18.8863446l1.89096-1.47792 3.620904 4.632852-1.89096 1.47792zM22.513 24.284l-3.621-4.633s-2.361-.553-4.043-2.704c-1.681-2.151-1.647-4.576-1.647-4.576L9.581 7.738s-3.431 4.915 1.951 11.801 10.981 4.745 10.981 4.745zM10.5568023 6.9745094l1.89096-1.47792 3.620904 4.632852-1.89096 1.47792z"/>
  </g>
</svg>