<svg viewBox="0 0 32 32" xmlns="http://www.w3.org/2000/svg">
  <!-- <path d="M16 0C7.163 0 0 7.163 0 16c0 8.836 7.163 16 16 16s16-7.164 16-16c0-8.837-7.163-16-16-16z" fill="#2F3138"/> -->
  <path d="M14.068 9.289c-1.232-.03-2.594.065-3.951.274-.958.143-1.91.321-2.826.637-.696.238-1.047.994-.815 1.66.244.702.964 1.065 1.672.851 1.755-.524 3.564-.714 5.385-.779 1.19-.042 2.374.036 3.552.161 1.44.149 2.856.422 4.242.833 1.178.351 2.303.827 3.374 1.434.619.351 1.303.214 1.726-.315.428-.541.399-1.208-.077-1.731-.173-.196-.411-.309-.637-.434-1.351-.744-2.779-1.285-4.266-1.678-2.363-.639-4.779-.943-7.379-.913zm-.107 4.891c-.494.012-.94.024-1.386.048-1.488.071-2.939.333-4.367.756-.643.19-.958.779-.768 1.416.167.559.774.875 1.38.714.208-.054.417-.131.631-.179 2.368-.583 4.766-.66 7.176-.327 2.279.309 4.439.976 6.414 2.172.589.357 1.238.095 1.511-.339.345-.541.179-1.238-.375-1.577-.702-.434-1.434-.809-2.19-1.119-2.593-1.059-5.289-1.553-8.026-1.565zm-.577 4.677c-.446.018-.893.042-1.333.083-1.136.095-2.255.292-3.368.547-.512.119-.797.583-.69 1.047.113.5.547.774 1.083.672.292-.054.583-.113.875-.173 1.19-.256 2.404-.369 3.618-.417.791-.03 1.583.018 2.368.101 1.369.143 2.684.47 3.951 1 .613.256 1.184.589 1.773.898.422.22.946.06 1.16-.339.244-.452.113-.946-.321-1.208-.69-.422-1.416-.774-2.172-1.083-2.226-.92-4.558-1.194-6.944-1.128z" fill="#FFF"/>
</svg>